<svg width="18" height="18" viewBox="0 0 18 18" fill="none" xmlns="http://www.w3.org/2000/svg">
<path d="M8.53534 13.5353L7.03534 15.0353C6.37224 15.6983 5.47298 16.0707 4.53534 16.0707C3.5977 16.0707 2.69844 15.6983 2.03534 15.0353C1.37241 14.3722 1 13.473 1 12.5353C1 11.5977 1.37241 10.6984 2.03534 10.0353L5.03534 7.03534C5.69844 6.37241 6.5977 6 7.53534 6C8.47298 6 9.37224 6.37241 10.0353 7.03534" stroke="#168200" stroke-width="2" stroke-linecap="round"/>
<path d="M8.5354 3.53534L10.0354 2.03534C10.6985 1.37241 11.5978 1 12.5354 1C13.473 1 14.3723 1.37241 15.0354 2.03534C15.6983 2.69844 16.0707 3.5977 16.0707 4.53534C16.0707 5.47298 15.6983 6.37224 15.0354 7.03534L12.0354 10.0353C11.3723 10.6983 10.473 11.0707 9.5354 11.0707C8.59776 11.0707 7.6985 10.6983 7.0354 10.0353" stroke="#168200" stroke-width="2" stroke-linecap="round"/>
</svg>
